<svg xmlns="http://www.w3.org/2000/svg" width="24" height="24" viewBox="0 0 16 16"><path fill="#000" d="m5.318 13.47l.776-.776A6 6 0 0 0 8 13c1.999 0 3.74-.956 5.225-2.587A12 12 0 0 0 14.926 8a12 12 0 0 0-1.701-2.413l-.011-.012l.707-.708c1.359 1.476 2.045 2.976 2.058 3.006q.021.046.021.098v.06a.24.24 0 0 1-.02.097C15.952 8.188 13.291 14 8 14a7 7 0 0 1-2.682-.53M2.04 11.092C.707 9.629.034 8.158.02 8.128A.24.24 0 0 1 0 8.03v-.059q0-.052.02-.098C.048 7.813 2.709 2 8 2c.962 0 1.837.192 2.625.507l-.78.78A6 6 0 0 0 8 3c-2 0-3.74.956-5.225 2.587a12 12 0 0 0-1.701 2.414a12 12 0 0 0 1.674 2.383zM8.362 4.77L7.255 5.877a2.26 2.26 0 0 0-1.378 1.378L4.77 8.362A3.252 3.252 0 0 1 8.362 4.77m2.86 2.797q.027.213.028.433a3.254 3.254 0 0 1-3.683 3.221l1.061-1.06a2.26 2.26 0 0 0 1.533-1.533zm-9.368 7.287a.5.5 0 0 1-.708-.708l13-13a.5.5 0 0 1 .708.708z"/></svg>