<svg xmlns="http://www.w3.org/2000/svg" width="24" height="24" viewBox="0 0 24 24"><path fill="#fff" d="M11.992 14.65a2.65 2.65 0 0 1-1.87-4.53a.753.753 0 1 1 1.06 1.07a1.13 1.13 0 0 0-.34.81a1.14 1.14 0 0 0 2 .81a.76.76 0 0 1 1.07 0a.77.77 0 0 1 0 1.07a2.67 2.67 0 0 1-1.92.77"/><path fill="#fff" d="M22.242 12a10.25 10.25 0 0 1-10.25 10.25a10.25 10.25 0 0 1 0-20.5a.75.75 0 0 1 .75.75v3.8a.76.76 0 0 1-.75.75a4.86 4.86 0 0 0-2.75.83a4.93 4.93 0 0 0-2.11 5.08a5 5 0 0 0 9.81-1a.74.74 0 0 1 .75-.75h3.8a.75.75 0 0 1 .75.79"/><path fill="#fff" d="M21.882 6.13a1.06 1.06 0 0 1-.23.53l-2.17 2.17a2.6 2.6 0 0 1-1.11.66a2.5 2.5 0 0 1-.76.11a3 3 0 0 1-.53 0l-1.33-.26l-2.28 2.29a.8.8 0 0 1-.53.22a.75.75 0 0 1-.53-.22a.74.74 0 0 1 0-1.06l2.29-2.3l-.27-1.32a2.76 2.76 0 0 1 .06-1.28a2.6 2.6 0 0 1 .66-1.11l2.15-2.15a1 1 0 0 1 .53-.25a.9.9 0 0 1 .54.09a1 1 0 0 1 .4.37a1 1 0 0 1 .12.58l-.32 2.26l2.25-.31a.94.94 0 0 1 .93.51a1 1 0 0 1 .13.47"/></svg>